<svg xmlns="http://www.w3.org/2000/svg" width="200" height="200" baseProfile="tiny" version="1.1"><rect width="200" height="200" x="0" y="0" fill="#fff" shape-rendering="optimizeSpeed"/><rect width="7" height="7" x="12" y="12" fill="#000" shape-rendering="optimizeSpeed"/><rect width="7" height="7" x="19" y="12" fill="#000" shape-rendering="optimizeSpeed"/><rect width="7" height="7" x="26" y="12" fill="#000" shape-rendering="optimizeSpeed"/><rect width="7" height="7" x="33" y="12" fill="#000" shape-rendering="optimizeSpeed"/><rect width="7" height="7" x="40" y="12" fill="#000" shape-rendering="optimizeSpeed"/><rect width="7" height="7" x="47" y="12" fill="#000" shape-rendering="optimizeSpeed"/><rect width="7" height="7" x="54" y="12" fill="#000" shape-rendering="optimizeSpeed"/><rect width="7" height="7" x="89" y="12" fill="#000" shape-rendering="optimizeSpeed"/><rect width="7" height="7" x="96" y="12" fill="#000" shape-rendering="optimizeSpeed"/><rect width="7" height="7" x="110" y="12" fill="#000" shape-rendering="optimizeSpeed"/><rect width="7" height="7" x="124" y="12" fill="#000" shape-rendering="optimizeSpeed"/><rect width="7" height="7" x="138" y="12" fill="#000" shape-rendering="optimizeSpeed"/><rect width="7" height="7" x="145" y="12" fill="#000" shape-rendering="optimizeSpeed"/><rect width="7" height="7" x="152" y="12" fill="#000" shape-rendering="optimizeSpeed"/><rect width="7" height="7" x="159" y="12" fill="#000" shape-rendering="optimizeSpeed"/><rect width="7" height="7" x="166" y="12" fill="#000" shape-rendering="optimizeSpeed"/><rect width="7" height="7" x="173" y="12" fill="#000" shape-rendering="optimizeSpeed"/><rect width="7" height="7" x="180" y="12" fill="#000" shape-rendering="optimizeSpeed"/><rect width="7" height="7" x="12" y="19" fill="#000" shape-rendering="optimizeSpeed"/><rect width="7" height="7" x="54" y="19" fill="#000" shape-rendering="optimizeSpeed"/><rect width="7" height="7" x="75" y="19" fill="#000" shape-rendering="optimizeSpeed"/><rect width="7" height="7" x="82" y="19" fill="#000" shape-rendering="optimizeSpeed"/><rect width="7" height="7" x="103" y="19" fill="#000" shape-rendering="optimizeSpeed"/><rect width="7" height="7" x="110" y="19" fill="#000" shape-rendering="optimizeSpeed"/><rect width="7" height="7" x="124" y="19" fill="#000" shape-rendering="optimizeSpeed"/><rect width="7" height="7" x="138" y="19" fill="#000" shape-rendering="optimizeSpeed"/><rect width="7" height="7" x="180" y="19" fill="#000" shape-rendering="optimizeSpeed"/><rect width="7" height="7" x="12" y="26" fill="#000" shape-rendering="optimizeSpeed"/><rect width="7" height="7" x="26" y="26" fill="#000" shape-rendering="optimizeSpeed"/><rect width="7" height="7" x="33" y="26" fill="#000" shape-rendering="optimizeSpeed"/><rect width="7" height="7" x="40" y="26" fill="#000" shape-rendering="optimizeSpeed"/><rect width="7" height="7" x="54" y="26" fill="#000" shape-rendering="optimizeSpeed"/><rect width="7" height="7" x="96" y="26" fill="#000" shape-rendering="optimizeSpeed"/><rect width="7" height="7" x="117" y="26" fill="#000" shape-rendering="optimizeSpeed"/><rect width="7" height="7" x="124" y="26" fill="#000" shape-rendering="optimizeSpeed"/><rect width="7" height="7" x="138" y="26" fill="#000" shape-rendering="optimizeSpeed"/><rect width="7" height="7" x="152" y="26" fill="#000" shape-rendering="optimizeSpeed"/><rect width="7" height="7" x="159" y="26" fill="#000" shape-rendering="optimizeSpeed"/><rect width="7" height="7" x="166" y="26" fill="#000" shape-rendering="optimizeSpeed"/><rect width="7" height="7" x="180" y="26" fill="#000" shape-rendering="optimizeSpeed"/><rect width="7" height="7" x="12" y="33" fill="#000" shape-rendering="optimizeSpeed"/><rect width="7" height="7" x="26" y="33" fill="#000" shape-rendering="optimizeSpeed"/><rect width="7" height="7" x="33" y="33" fill="#000" shape-rendering="optimizeSpeed"/><rect width="7" height="7" x="40" y="33" fill="#000" shape-rendering="optimizeSpeed"/><rect width="7" height="7" x="54" y="33" fill="#000" shape-rendering="optimizeSpeed"/><rect width="7" height="7" x="68" y="33" fill="#000" shape-rendering="optimizeSpeed"/><rect width="7" height="7" x="96" y="33" fill="#000" shape-rendering="optimizeSpeed"/><rect width="7" height="7" x="103" y="33" fill="#000" shape-rendering="optimizeSpeed"/><rect width="7" height="7" x="124" y="33" fill="#000" shape-rendering="optimizeSpeed"/><rect width="7" height="7" x="138" y="33" fill="#000" shape-rendering="optimizeSpeed"/><rect width="7" height="7" x="152" y="33" fill="#000" shape-rendering="optimizeSpeed"/><rect width="7" height="7" x="159" y="33" fill="#000" shape-rendering="optimizeSpeed"/><rect width="7" height="7" x="166" y="33" fill="#000" shape-rendering="optimizeSpeed"/><rect width="7" height="7" x="180" y="33" fill="#000" shape-rendering="optimizeSpeed"/><rect width="7" height="7" x="12" y="40" fill="#000" shape-rendering="optimizeSpeed"/><rect width="7" height="7" x="26" y="40" fill="#000" shape-rendering="optimizeSpeed"/><rect width="7" height="7" x="33" y="40" fill="#000" shape-rendering="optimizeSpeed"/><rect width="7" height="7" x="40" y="40" fill="#000" shape-rendering="optimizeSpeed"/><rect width="7" height="7" x="54" y="40" fill="#000" shape-rendering="optimizeSpeed"/><rect width="7" height="7" x="68" y="40" fill="#000" shape-rendering="optimizeSpeed"/><rect width="7" height="7" x="75" y="40" fill="#000" shape-rendering="optimizeSpeed"/><rect width="7" height="7" x="103" y="40" fill="#000" shape-rendering="optimizeSpeed"/><rect width="7" height="7" x="124" y="40" fill="#000" shape-rendering="optimizeSpeed"/><rect width="7" height="7" x="138" y="40" fill="#000" shape-rendering="optimizeSpeed"/><rect width="7" height="7" x="152" y="40" fill="#000" shape-rendering="optimizeSpeed"/><rect width="7" height="7" x="159" y="40" fill="#000" shape-rendering="optimizeSpeed"/><rect width="7" height="7" x="166" y="40" fill="#000" shape-rendering="optimizeSpeed"/><rect width="7" height="7" x="180" y="40" fill="#000" shape-rendering="optimizeSpeed"/><rect width="7" height="7" x="12" y="47" fill="#000" shape-rendering="optimizeSpeed"/><rect width="7" height="7" x="54" y="47" fill="#000" shape-rendering="optimizeSpeed"/><rect width="7" height="7" x="89" y="47" fill="#000" shape-rendering="optimizeSpeed"/><rect width="7" height="7" x="96" y="47" fill="#000" shape-rendering="optimizeSpeed"/><rect width="7" height="7" x="110" y="47" fill="#000" shape-rendering="optimizeSpeed"/><rect width="7" height="7" x="124" y="47" fill="#000" shape-rendering="optimizeSpeed"/><rect width="7" height="7" x="138" y="47" fill="#000" shape-rendering="optimizeSpeed"/><rect width="7" height="7" x="180" y="47" fill="#000" shape-rendering="optimizeSpeed"/><rect width="7" height="7" x="12" y="54" fill="#000" shape-rendering="optimizeSpeed"/><rect width="7" height="7" x="19" y="54" fill="#000" shape-rendering="optimizeSpeed"/><rect width="7" height="7" x="26" y="54" fill="#000" shape-rendering="optimizeSpeed"/><rect width="7" height="7" x="33" y="54" fill="#000" shape-rendering="optimizeSpeed"/><rect width="7" height="7" x="40" y="54" fill="#000" shape-rendering="optimizeSpeed"/><rect width="7" height="7" x="47" y="54" fill="#000" shape-rendering="optimizeSpeed"/><rect width="7" height="7" x="54" y="54" fill="#000" shape-rendering="optimizeSpeed"/><rect width="7" height="7" x="68" y="54" fill="#000" shape-rendering="optimizeSpeed"/><rect width="7" height="7" x="82" y="54" fill="#000" shape-rendering="optimizeSpeed"/><rect width="7" height="7" x="96" y="54" fill="#000" shape-rendering="optimizeSpeed"/><rect width="7" height="7" x="110" y="54" fill="#000" shape-rendering="optimizeSpeed"/><rect width="7" height="7" x="124" y="54" fill="#000" shape-rendering="optimizeSpeed"/><rect width="7" height="7" x="138" y="54" fill="#000" shape-rendering="optimizeSpeed"/><rect width="7" height="7" x="145" y="54" fill="#000" shape-rendering="optimizeSpeed"/><rect width="7" height="7" x="152" y="54" fill="#000" shape-rendering="optimizeSpeed"/><rect width="7" height="7" x="159" y="54" fill="#000" shape-rendering="optimizeSpeed"/><rect width="7" height="7" x="166" y="54" fill="#000" shape-rendering="optimizeSpeed"/><rect width="7" height="7" x="173" y="54" fill="#000" shape-rendering="optimizeSpeed"/><rect width="7" height="7" x="180" y="54" fill="#000" shape-rendering="optimizeSpeed"/><rect width="7" height="7" x="82" y="61" fill="#000" shape-rendering="optimizeSpeed"/><rect width="7" height="7" x="89" y="61" fill="#000" shape-rendering="optimizeSpeed"/><rect width="7" height="7" x="117" y="61" fill="#000" shape-rendering="optimizeSpeed"/><rect width="7" height="7" x="124" y="61" fill="#000" shape-rendering="optimizeSpeed"/><rect width="7" height="7" x="12" y="68" fill="#000" shape-rendering="optimizeSpeed"/><rect width="7" height="7" x="19" y="68" fill="#000" shape-rendering="optimizeSpeed"/><rect width="7" height="7" x="47" y="68" fill="#000" shape-rendering="optimizeSpeed"/><rect width="7" height="7" x="54" y="68" fill="#000" shape-rendering="optimizeSpeed"/><rect width="7" height="7" x="61" y="68" fill="#000" shape-rendering="optimizeSpeed"/><rect width="7" height="7" x="75" y="68" fill="#000" shape-rendering="optimizeSpeed"/><rect width="7" height="7" x="89" y="68" fill="#000" shape-rendering="optimizeSpeed"/><rect width="7" height="7" x="96" y="68" fill="#000" shape-rendering="optimizeSpeed"/><rect width="7" height="7" x="103" y="68" fill="#000" shape-rendering="optimizeSpeed"/><rect width="7" height="7" x="110" y="68" fill="#000" shape-rendering="optimizeSpeed"/><rect width="7" height="7" x="117" y="68" fill="#000" shape-rendering="optimizeSpeed"/><rect width="7" height="7" x="152" y="68" fill="#000" shape-rendering="optimizeSpeed"/><rect width="7" height="7" x="159" y="68" fill="#000" shape-rendering="optimizeSpeed"/><rect width="7" height="7" x="12" y="75" fill="#000" shape-rendering="optimizeSpeed"/><rect width="7" height="7" x="19" y="75" fill="#000" shape-rendering="optimizeSpeed"/><rect width="7" height="7" x="33" y="75" fill="#000" shape-rendering="optimizeSpeed"/><rect width="7" height="7" x="47" y="75" fill="#000" shape-rendering="optimizeSpeed"/><rect width="7" height="7" x="61" y="75" fill="#000" shape-rendering="optimizeSpeed"/><rect width="7" height="7" x="75" y="75" fill="#000" shape-rendering="optimizeSpeed"/><rect width="7" height="7" x="96" y="75" fill="#000" shape-rendering="optimizeSpeed"/><rect width="7" height="7" x="103" y="75" fill="#000" shape-rendering="optimizeSpeed"/><rect width="7" height="7" x="110" y="75" fill="#000" shape-rendering="optimizeSpeed"/><rect width="7" height="7" x="117" y="75" fill="#000" shape-rendering="optimizeSpeed"/><rect width="7" height="7" x="131" y="75" fill="#000" shape-rendering="optimizeSpeed"/><rect width="7" height="7" x="145" y="75" fill="#000" shape-rendering="optimizeSpeed"/><rect width="7" height="7" x="152" y="75" fill="#000" shape-rendering="optimizeSpeed"/><rect width="7" height="7" x="159" y="75" fill="#000" shape-rendering="optimizeSpeed"/><rect width="7" height="7" x="166" y="75" fill="#000" shape-rendering="optimizeSpeed"/><rect width="7" height="7" x="173" y="75" fill="#000" shape-rendering="optimizeSpeed"/><rect width="7" height="7" x="26" y="82" fill="#000" shape-rendering="optimizeSpeed"/><rect width="7" height="7" x="47" y="82" fill="#000" shape-rendering="optimizeSpeed"/><rect width="7" height="7" x="54" y="82" fill="#000" shape-rendering="optimizeSpeed"/><rect width="7" height="7" x="68" y="82" fill="#000" shape-rendering="optimizeSpeed"/><rect width="7" height="7" x="82" y="82" fill="#000" shape-rendering="optimizeSpeed"/><rect width="7" height="7" x="96" y="82" fill="#000" shape-rendering="optimizeSpeed"/><rect width="7" height="7" x="117" y="82" fill="#000" shape-rendering="optimizeSpeed"/><rect width="7" height="7" x="124" y="82" fill="#000" shape-rendering="optimizeSpeed"/><rect width="7" height="7" x="138" y="82" fill="#000" shape-rendering="optimizeSpeed"/><rect width="7" height="7" x="145" y="82" fill="#000" shape-rendering="optimizeSpeed"/><rect width="7" height="7" x="159" y="82" fill="#000" shape-rendering="optimizeSpeed"/><rect width="7" height="7" x="173" y="82" fill="#000" shape-rendering="optimizeSpeed"/><rect width="7" height="7" x="180" y="82" fill="#000" shape-rendering="optimizeSpeed"/><rect width="7" height="7" x="19" y="89" fill="#000" shape-rendering="optimizeSpeed"/><rect width="7" height="7" x="26" y="89" fill="#000" shape-rendering="optimizeSpeed"/><rect width="7" height="7" x="40" y="89" fill="#000" shape-rendering="optimizeSpeed"/><rect width="7" height="7" x="47" y="89" fill="#000" shape-rendering="optimizeSpeed"/><rect width="7" height="7" x="68" y="89" fill="#000" shape-rendering="optimizeSpeed"/><rect width="7" height="7" x="75" y="89" fill="#000" shape-rendering="optimizeSpeed"/><rect width="7" height="7" x="96" y="89" fill="#000" shape-rendering="optimizeSpeed"/><rect width="7" height="7" x="110" y="89" fill="#000" shape-rendering="optimizeSpeed"/><rect width="7" height="7" x="159" y="89" fill="#000" shape-rendering="optimizeSpeed"/><rect width="7" height="7" x="180" y="89" fill="#000" shape-rendering="optimizeSpeed"/><rect width="7" height="7" x="12" y="96" fill="#000" shape-rendering="optimizeSpeed"/><rect width="7" height="7" x="19" y="96" fill="#000" shape-rendering="optimizeSpeed"/><rect width="7" height="7" x="40" y="96" fill="#000" shape-rendering="optimizeSpeed"/><rect width="7" height="7" x="47" y="96" fill="#000" shape-rendering="optimizeSpeed"/><rect width="7" height="7" x="54" y="96" fill="#000" shape-rendering="optimizeSpeed"/><rect width="7" height="7" x="61" y="96" fill="#000" shape-rendering="optimizeSpeed"/><rect width="7" height="7" x="68" y="96" fill="#000" shape-rendering="optimizeSpeed"/><rect width="7" height="7" x="75" y="96" fill="#000" shape-rendering="optimizeSpeed"/><rect width="7" height="7" x="117" y="96" fill="#000" shape-rendering="optimizeSpeed"/><rect width="7" height="7" x="124" y="96" fill="#000" shape-rendering="optimizeSpeed"/><rect width="7" height="7" x="138" y="96" fill="#000" shape-rendering="optimizeSpeed"/><rect width="7" height="7" x="180" y="96" fill="#000" shape-rendering="optimizeSpeed"/><rect width="7" height="7" x="12" y="103" fill="#000" shape-rendering="optimizeSpeed"/><rect width="7" height="7" x="19" y="103" fill="#000" shape-rendering="optimizeSpeed"/><rect width="7" height="7" x="33" y="103" fill="#000" shape-rendering="optimizeSpeed"/><rect width="7" height="7" x="40" y="103" fill="#000" shape-rendering="optimizeSpeed"/><rect width="7" height="7" x="68" y="103" fill="#000" shape-rendering="optimizeSpeed"/><rect width="7" height="7" x="89" y="103" fill="#000" shape-rendering="optimizeSpeed"/><rect width="7" height="7" x="96" y="103" fill="#000" shape-rendering="optimizeSpeed"/><rect width="7" height="7" x="103" y="103" fill="#000" shape-rendering="optimizeSpeed"/><rect width="7" height="7" x="117" y="103" fill="#000" shape-rendering="optimizeSpeed"/><rect width="7" height="7" x="124" y="103" fill="#000" shape-rendering="optimizeSpeed"/><rect width="7" height="7" x="145" y="103" fill="#000" shape-rendering="optimizeSpeed"/><rect width="7" height="7" x="173" y="103" fill="#000" shape-rendering="optimizeSpeed"/><rect width="7" height="7" x="12" y="110" fill="#000" shape-rendering="optimizeSpeed"/><rect width="7" height="7" x="33" y="110" fill="#000" shape-rendering="optimizeSpeed"/><rect width="7" height="7" x="47" y="110" fill="#000" shape-rendering="optimizeSpeed"/><rect width="7" height="7" x="54" y="110" fill="#000" shape-rendering="optimizeSpeed"/><rect width="7" height="7" x="96" y="110" fill="#000" shape-rendering="optimizeSpeed"/><rect width="7" height="7" x="103" y="110" fill="#000" shape-rendering="optimizeSpeed"/><rect width="7" height="7" x="110" y="110" fill="#000" shape-rendering="optimizeSpeed"/><rect width="7" height="7" x="117" y="110" fill="#000" shape-rendering="optimizeSpeed"/><rect width="7" height="7" x="131" y="110" fill="#000" shape-rendering="optimizeSpeed"/><rect width="7" height="7" x="138" y="110" fill="#000" shape-rendering="optimizeSpeed"/><rect width="7" height="7" x="145" y="110" fill="#000" shape-rendering="optimizeSpeed"/><rect width="7" height="7" x="152" y="110" fill="#000" shape-rendering="optimizeSpeed"/><rect width="7" height="7" x="159" y="110" fill="#000" shape-rendering="optimizeSpeed"/><rect width="7" height="7" x="173" y="110" fill="#000" shape-rendering="optimizeSpeed"/><rect width="7" height="7" x="180" y="110" fill="#000" shape-rendering="optimizeSpeed"/><rect width="7" height="7" x="12" y="117" fill="#000" shape-rendering="optimizeSpeed"/><rect width="7" height="7" x="26" y="117" fill="#000" shape-rendering="optimizeSpeed"/><rect width="7" height="7" x="33" y="117" fill="#000" shape-rendering="optimizeSpeed"/><rect width="7" height="7" x="61" y="117" fill="#000" shape-rendering="optimizeSpeed"/><rect width="7" height="7" x="68" y="117" fill="#000" shape-rendering="optimizeSpeed"/><rect width="7" height="7" x="75" y="117" fill="#000" shape-rendering="optimizeSpeed"/><rect width="7" height="7" x="96" y="117" fill="#000" shape-rendering="optimizeSpeed"/><rect width="7" height="7" x="110" y="117" fill="#000" shape-rendering="optimizeSpeed"/><rect width="7" height="7" x="124" y="117" fill="#000" shape-rendering="optimizeSpeed"/><rect width="7" height="7" x="131" y="117" fill="#000" shape-rendering="optimizeSpeed"/><rect width="7" height="7" x="145" y="117" fill="#000" shape-rendering="optimizeSpeed"/><rect width="7" height="7" x="159" y="117" fill="#000" shape-rendering="optimizeSpeed"/><rect width="7" height="7" x="166" y="117" fill="#000" shape-rendering="optimizeSpeed"/><rect width="7" height="7" x="180" y="117" fill="#000" shape-rendering="optimizeSpeed"/><rect width="7" height="7" x="12" y="124" fill="#000" shape-rendering="optimizeSpeed"/><rect width="7" height="7" x="33" y="124" fill="#000" shape-rendering="optimizeSpeed"/><rect width="7" height="7" x="40" y="124" fill="#000" shape-rendering="optimizeSpeed"/><rect width="7" height="7" x="47" y="124" fill="#000" shape-rendering="optimizeSpeed"/><rect width="7" height="7" x="54" y="124" fill="#000" shape-rendering="optimizeSpeed"/><rect width="7" height="7" x="68" y="124" fill="#000" shape-rendering="optimizeSpeed"/><rect width="7" height="7" x="75" y="124" fill="#000" shape-rendering="optimizeSpeed"/><rect width="7" height="7" x="89" y="124" fill="#000" shape-rendering="optimizeSpeed"/><rect width="7" height="7" x="103" y="124" fill="#000" shape-rendering="optimizeSpeed"/><rect width="7" height="7" x="110" y="124" fill="#000" shape-rendering="optimizeSpeed"/><rect width="7" height="7" x="117" y="124" fill="#000" shape-rendering="optimizeSpeed"/><rect width="7" height="7" x="124" y="124" fill="#000" shape-rendering="optimizeSpeed"/><rect width="7" height="7" x="131" y="124" fill="#000" shape-rendering="optimizeSpeed"/><rect width="7" height="7" x="138" y="124" fill="#000" shape-rendering="optimizeSpeed"/><rect width="7" height="7" x="145" y="124" fill="#000" shape-rendering="optimizeSpeed"/><rect width="7" height="7" x="152" y="124" fill="#000" shape-rendering="optimizeSpeed"/><rect width="7" height="7" x="166" y="124" fill="#000" shape-rendering="optimizeSpeed"/><rect width="7" height="7" x="68" y="131" fill="#000" shape-rendering="optimizeSpeed"/><rect width="7" height="7" x="75" y="131" fill="#000" shape-rendering="optimizeSpeed"/><rect width="7" height="7" x="103" y="131" fill="#000" shape-rendering="optimizeSpeed"/><rect width="7" height="7" x="117" y="131" fill="#000" shape-rendering="optimizeSpeed"/><rect width="7" height="7" x="124" y="131" fill="#000" shape-rendering="optimizeSpeed"/><rect width="7" height="7" x="152" y="131" fill="#000" shape-rendering="optimizeSpeed"/><rect width="7" height="7" x="12" y="138" fill="#000" shape-rendering="optimizeSpeed"/><rect width="7" height="7" x="19" y="138" fill="#000" shape-rendering="optimizeSpeed"/><rect width="7" height="7" x="26" y="138" fill="#000" shape-rendering="optimizeSpeed"/><rect width="7" height="7" x="33" y="138" fill="#000" shape-rendering="optimizeSpeed"/><rect width="7" height="7" x="40" y="138" fill="#000" shape-rendering="optimizeSpeed"/><rect width="7" height="7" x="47" y="138" fill="#000" shape-rendering="optimizeSpeed"/><rect width="7" height="7" x="54" y="138" fill="#000" shape-rendering="optimizeSpeed"/><rect width="7" height="7" x="68" y="138" fill="#000" shape-rendering="optimizeSpeed"/><rect width="7" height="7" x="89" y="138" fill="#000" shape-rendering="optimizeSpeed"/><rect width="7" height="7" x="96" y="138" fill="#000" shape-rendering="optimizeSpeed"/><rect width="7" height="7" x="110" y="138" fill="#000" shape-rendering="optimizeSpeed"/><rect width="7" height="7" x="124" y="138" fill="#000" shape-rendering="optimizeSpeed"/><rect width="7" height="7" x="138" y="138" fill="#000" shape-rendering="optimizeSpeed"/><rect width="7" height="7" x="152" y="138" fill="#000" shape-rendering="optimizeSpeed"/><rect width="7" height="7" x="180" y="138" fill="#000" shape-rendering="optimizeSpeed"/><rect width="7" height="7" x="12" y="145" fill="#000" shape-rendering="optimizeSpeed"/><rect width="7" height="7" x="54" y="145" fill="#000" shape-rendering="optimizeSpeed"/><rect width="7" height="7" x="68" y="145" fill="#000" shape-rendering="optimizeSpeed"/><rect width="7" height="7" x="82" y="145" fill="#000" shape-rendering="optimizeSpeed"/><rect width="7" height="7" x="96" y="145" fill="#000" shape-rendering="optimizeSpeed"/><rect width="7" height="7" x="110" y="145" fill="#000" shape-rendering="optimizeSpeed"/><rect width="7" height="7" x="117" y="145" fill="#000" shape-rendering="optimizeSpeed"/><rect width="7" height="7" x="124" y="145" fill="#000" shape-rendering="optimizeSpeed"/><rect width="7" height="7" x="152" y="145" fill="#000" shape-rendering="optimizeSpeed"/><rect width="7" height="7" x="173" y="145" fill="#000" shape-rendering="optimizeSpeed"/><rect width="7" height="7" x="12" y="152" fill="#000" shape-rendering="optimizeSpeed"/><rect width="7" height="7" x="26" y="152" fill="#000" shape-rendering="optimizeSpeed"/><rect width="7" height="7" x="33" y="152" fill="#000" shape-rendering="optimizeSpeed"/><rect width="7" height="7" x="40" y="152" fill="#000" shape-rendering="optimizeSpeed"/><rect width="7" height="7" x="54" y="152" fill="#000" shape-rendering="optimizeSpeed"/><rect width="7" height="7" x="82" y="152" fill="#000" shape-rendering="optimizeSpeed"/><rect width="7" height="7" x="89" y="152" fill="#000" shape-rendering="optimizeSpeed"/><rect width="7" height="7" x="96" y="152" fill="#000" shape-rendering="optimizeSpeed"/><rect width="7" height="7" x="103" y="152" fill="#000" shape-rendering="optimizeSpeed"/><rect width="7" height="7" x="117" y="152" fill="#000" shape-rendering="optimizeSpeed"/><rect width="7" height="7" x="124" y="152" fill="#000" shape-rendering="optimizeSpeed"/><rect width="7" height="7" x="131" y="152" fill="#000" shape-rendering="optimizeSpeed"/><rect width="7" height="7" x="138" y="152" fill="#000" shape-rendering="optimizeSpeed"/><rect width="7" height="7" x="145" y="152" fill="#000" shape-rendering="optimizeSpeed"/><rect width="7" height="7" x="152" y="152" fill="#000" shape-rendering="optimizeSpeed"/><rect width="7" height="7" x="166" y="152" fill="#000" shape-rendering="optimizeSpeed"/><rect width="7" height="7" x="12" y="159" fill="#000" shape-rendering="optimizeSpeed"/><rect width="7" height="7" x="26" y="159" fill="#000" shape-rendering="optimizeSpeed"/><rect width="7" height="7" x="33" y="159" fill="#000" shape-rendering="optimizeSpeed"/><rect width="7" height="7" x="40" y="159" fill="#000" shape-rendering="optimizeSpeed"/><rect width="7" height="7" x="54" y="159" fill="#000" shape-rendering="optimizeSpeed"/><rect width="7" height="7" x="75" y="159" fill="#000" shape-rendering="optimizeSpeed"/><rect width="7" height="7" x="89" y="159" fill="#000" shape-rendering="optimizeSpeed"/><rect width="7" height="7" x="103" y="159" fill="#000" shape-rendering="optimizeSpeed"/><rect width="7" height="7" x="110" y="159" fill="#000" shape-rendering="optimizeSpeed"/><rect width="7" height="7" x="131" y="159" fill="#000" shape-rendering="optimizeSpeed"/><rect width="7" height="7" x="138" y="159" fill="#000" shape-rendering="optimizeSpeed"/><rect width="7" height="7" x="173" y="159" fill="#000" shape-rendering="optimizeSpeed"/><rect width="7" height="7" x="180" y="159" fill="#000" shape-rendering="optimizeSpeed"/><rect width="7" height="7" x="12" y="166" fill="#000" shape-rendering="optimizeSpeed"/><rect width="7" height="7" x="26" y="166" fill="#000" shape-rendering="optimizeSpeed"/><rect width="7" height="7" x="33" y="166" fill="#000" shape-rendering="optimizeSpeed"/><rect width="7" height="7" x="40" y="166" fill="#000" shape-rendering="optimizeSpeed"/><rect width="7" height="7" x="54" y="166" fill="#000" shape-rendering="optimizeSpeed"/><rect width="7" height="7" x="75" y="166" fill="#000" shape-rendering="optimizeSpeed"/><rect width="7" height="7" x="82" y="166" fill="#000" shape-rendering="optimizeSpeed"/><rect width="7" height="7" x="96" y="166" fill="#000" shape-rendering="optimizeSpeed"/><rect width="7" height="7" x="103" y="166" fill="#000" shape-rendering="optimizeSpeed"/><rect width="7" height="7" x="110" y="166" fill="#000" shape-rendering="optimizeSpeed"/><rect width="7" height="7" x="124" y="166" fill="#000" shape-rendering="optimizeSpeed"/><rect width="7" height="7" x="159" y="166" fill="#000" shape-rendering="optimizeSpeed"/><rect width="7" height="7" x="166" y="166" fill="#000" shape-rendering="optimizeSpeed"/><rect width="7" height="7" x="180" y="166" fill="#000" shape-rendering="optimizeSpeed"/><rect width="7" height="7" x="12" y="173" fill="#000" shape-rendering="optimizeSpeed"/><rect width="7" height="7" x="54" y="173" fill="#000" shape-rendering="optimizeSpeed"/><rect width="7" height="7" x="68" y="173" fill="#000" shape-rendering="optimizeSpeed"/><rect width="7" height="7" x="82" y="173" fill="#000" shape-rendering="optimizeSpeed"/><rect width="7" height="7" x="110" y="173" fill="#000" shape-rendering="optimizeSpeed"/><rect width="7" height="7" x="124" y="173" fill="#000" shape-rendering="optimizeSpeed"/><rect width="7" height="7" x="131" y="173" fill="#000" shape-rendering="optimizeSpeed"/><rect width="7" height="7" x="145" y="173" fill="#000" shape-rendering="optimizeSpeed"/><rect width="7" height="7" x="152" y="173" fill="#000" shape-rendering="optimizeSpeed"/><rect width="7" height="7" x="180" y="173" fill="#000" shape-rendering="optimizeSpeed"/><rect width="7" height="7" x="12" y="180" fill="#000" shape-rendering="optimizeSpeed"/><rect width="7" height="7" x="19" y="180" fill="#000" shape-rendering="optimizeSpeed"/><rect width="7" height="7" x="26" y="180" fill="#000" shape-rendering="optimizeSpeed"/><rect width="7" height="7" x="33" y="180" fill="#000" shape-rendering="optimizeSpeed"/><rect width="7" height="7" x="40" y="180" fill="#000" shape-rendering="optimizeSpeed"/><rect width="7" height="7" x="47" y="180" fill="#000" shape-rendering="optimizeSpeed"/><rect width="7" height="7" x="54" y="180" fill="#000" shape-rendering="optimizeSpeed"/><rect width="7" height="7" x="68" y="180" fill="#000" shape-rendering="optimizeSpeed"/><rect width="7" height="7" x="75" y="180" fill="#000" shape-rendering="optimizeSpeed"/><rect width="7" height="7" x="89" y="180" fill="#000" shape-rendering="optimizeSpeed"/><rect width="7" height="7" x="117" y="180" fill="#000" shape-rendering="optimizeSpeed"/><rect width="7" height="7" x="124" y="180" fill="#000" shape-rendering="optimizeSpeed"/><rect width="7" height="7" x="159" y="180" fill="#000" shape-rendering="optimizeSpeed"/><rect width="7" height="7" x="180" y="180" fill="#000" shape-rendering="optimizeSpeed"/></svg>